<svg width="51" height="40" viewBox="0 0 51 40" fill="none" xmlns="http://www.w3.org/2000/svg">
<g id="donate coin">
<path id="Union" fill-rule="evenodd" clip-rule="evenodd" d="M40.4805 20C46.0033 20 50.4805 15.5228 50.4805 10C50.4805 4.47715 46.0033 0 40.4805 0C34.9576 0 30.4805 4.47715 30.4805 10C30.4805 15.5228 34.9576 20 40.4805 20ZM0.480469 10H4.43458C5.12437 10 5.80671 10.1427 6.43867 10.4192L21.1361 16.8493C23.5407 17.9013 24.6464 20.6961 23.6125 23.1086C23.4556 23.4747 23.2583 23.8112 23.0282 24.1151L29.8133 28.4164C31.8961 29.4578 34.1928 30 36.5215 30H40.4805C43.2419 30 45.4805 32.2386 45.4805 35C45.4805 37.7614 43.2419 40 40.4805 40H20.2018C17.0969 40 14.0347 39.2771 11.2576 37.8885L0.480469 32.5V10Z" fill="#28303F"/>
</g>
</svg>
