<svg width="51" height="42" viewBox="0 0 51 42" fill="none" xmlns="http://www.w3.org/2000/svg">
<g id="money arrow right">
<path id="Combo shape" fill-rule="evenodd" clip-rule="evenodd" d="M10.9199 0H40.9199C46.4428 0 50.9199 4.47715 50.9199 10V22.5C50.9199 23.8807 49.8006 25 48.4199 25H40.9199C35.3971 25 30.9199 29.4772 30.9199 35V37.5C30.9199 38.8807 29.8006 40 28.4199 40H10.9199C5.39707 40 0.919922 35.5228 0.919922 30V10C0.919922 4.47715 5.39707 0 10.9199 0ZM10.9199 7.5C12.3006 7.5 13.4199 8.61929 13.4199 10C13.4199 11.3807 12.3006 12.5 10.9199 12.5C9.53921 12.5 8.41992 11.3807 8.41992 10C8.41992 8.61929 9.53921 7.5 10.9199 7.5ZM30.9199 20C30.9199 17.2386 28.6813 15 25.9199 15C23.1585 15 20.9199 17.2386 20.9199 20C20.9199 22.7614 23.1585 25 25.9199 25C28.6813 25 30.9199 22.7614 30.9199 20ZM43.1296 31.3258L44.9288 33.125H35.9199C34.8844 33.125 34.0449 33.9645 34.0449 35C34.0449 36.0355 34.8844 36.875 35.9199 36.875H44.9288L43.1296 38.6742C42.3974 39.4064 42.3974 40.5936 43.1296 41.3258C43.8619 42.0581 45.049 42.0581 45.7813 41.3258L49.0135 38.0936C50.7221 36.385 50.7221 33.6149 49.0135 31.9064L45.7813 28.6742C45.049 27.9419 43.8619 27.9419 43.1296 28.6742C42.3974 29.4064 42.3974 30.5936 43.1296 31.3258Z" fill="#28303F"/>
</g>
</svg>
