<svg width="52" height="46" viewBox="0 0 52 46" fill="none" xmlns="http://www.w3.org/2000/svg">
<g id="money user">
<path id="Combo shape" fill-rule="evenodd" clip-rule="evenodd" d="M40.2402 0.875H10.2402C4.71739 0.875 0.240234 5.35215 0.240234 10.875V30.875C0.240234 36.3978 4.71739 40.875 10.2402 40.875H27.7402C29.1209 40.875 30.2402 39.7557 30.2402 38.375V35.875C30.2402 30.3522 34.7174 25.875 40.2402 25.875H47.7402C49.1209 25.875 50.2402 24.7557 50.2402 23.375V10.875C50.2402 5.35215 45.7631 0.875 40.2402 0.875ZM12.7402 10.875C12.7402 9.49429 11.6209 8.375 10.2402 8.375C8.85952 8.375 7.74023 9.49429 7.74023 10.875C7.74023 12.2557 8.85952 13.375 10.2402 13.375C11.6209 13.375 12.7402 12.2557 12.7402 10.875ZM25.2402 15.875C28.0017 15.875 30.2402 18.1136 30.2402 20.875C30.2402 23.6364 28.0017 25.875 25.2402 25.875C22.4788 25.875 20.2402 23.6364 20.2402 20.875C20.2402 18.1136 22.4788 15.875 25.2402 15.875ZM47.7402 33.375C47.7402 30.6136 45.5017 28.375 42.7402 28.375C39.9788 28.375 37.7402 30.6136 37.7402 33.375C37.7402 36.1364 39.9788 38.375 42.7402 38.375C39.6247 38.375 36.7973 39.9786 34.7205 42.5852C33.5927 44.0007 34.78 45.875 36.5898 45.875H48.8906C50.7005 45.875 51.8877 44.0007 50.7599 42.5852C48.6831 39.9786 45.8558 38.375 42.7402 38.375C45.5017 38.375 47.7402 36.1364 47.7402 33.375Z" fill="#28303F"/>
</g>
</svg>
