<svg width="46" height="50" viewBox="0 0 46 50" fill="none" xmlns="http://www.w3.org/2000/svg">
<g id="money bag coin">
<path id="Combo shape" fill-rule="evenodd" clip-rule="evenodd" d="M11.4952 8.125H29.5052C32.4113 4.19955 28.496 -1.29432 23.6325 0.274621L21.3131 1.02285C20.785 1.19321 20.2154 1.19321 19.6873 1.02285L17.3679 0.27462C12.5043 -1.29432 8.58903 4.19954 11.4952 8.125ZM29.2348 11.875H11.7656C8.46739 13.7012 5.8907 16.7503 4.71084 20.5259L1.58584 30.5259C-1.43259 40.1848 5.78343 50 15.903 50H18.3179C17.3293 48.5827 16.7495 46.8591 16.7495 45C16.7495 43.1409 17.3293 41.4173 18.3179 40C17.3293 38.5827 16.7495 36.8591 16.7495 35C16.7495 30.1675 20.667 26.25 25.4995 26.25H38.0783L36.2895 20.5259C35.1096 16.7503 32.533 13.7012 29.2348 11.875ZM25.4995 30C22.7381 30 20.4995 32.2386 20.4995 35C20.4995 37.7614 22.7381 40 25.4995 40C22.7381 40 20.4995 42.2386 20.4995 45C20.4995 47.7614 22.7381 50 25.4995 50H40.4995C43.2609 50 45.4995 47.7614 45.4995 45C45.4995 42.2386 43.2609 40 40.4995 40C43.2609 40 45.4995 37.7614 45.4995 35C45.4995 32.2386 43.2609 30 40.4995 30H38.8328H25.4995Z" fill="#28303F"/>
</g>
</svg>
