<svg width="41" height="52" viewBox="0 0 41 52" fill="none" xmlns="http://www.w3.org/2000/svg">
<g id="profit">
<path id="Combo shape" fill-rule="evenodd" clip-rule="evenodd" d="M17.0856 7.16529L18.8848 5.36612L18.8848 14.375C18.8848 15.4105 19.7242 16.25 20.7598 16.25C21.7953 16.25 22.6348 15.4105 22.6348 14.375L22.6348 5.36612L24.4339 7.16529C25.1662 7.89752 26.3534 7.89752 27.0856 7.16529C27.8178 6.43306 27.8178 5.24587 27.0856 4.51364L23.8534 1.28141C22.1448 -0.427138 19.3747 -0.427134 17.6662 1.28141L14.4339 4.51364C13.7017 5.24588 13.7017 6.43306 14.4339 7.16529C15.1662 7.89753 16.3534 7.89753 17.0856 7.16529ZM5.75977 21.875C2.99834 21.875 0.759766 24.1136 0.759766 26.875C0.759766 29.6364 2.99834 31.875 5.75977 31.875C2.99834 31.875 0.759766 34.1136 0.759766 36.875C0.759766 39.6364 2.99834 41.875 5.75977 41.875H17.0098C17.0098 34.963 22.1063 29.248 28.7474 28.2717C29.4062 28.1749 30.0783 28.125 30.7598 28.125C31.5398 28.125 32.3047 28.19 33.0494 28.3148C33.1862 27.8588 33.2598 27.3755 33.2598 26.875C33.2598 24.1136 31.0212 21.875 28.2598 21.875H5.75977ZM40.7598 41.875C40.7598 36.3522 36.2826 31.875 30.7598 31.875C30.2614 31.875 29.7716 31.9115 29.2928 31.9818C24.4654 32.6915 20.7598 36.8505 20.7598 41.875C20.7598 47.3978 25.2369 51.875 30.7598 51.875C36.2826 51.875 40.7598 47.3978 40.7598 41.875Z" fill="#28303F"/>
</g>
</svg>
