<svg width="88" height="38" viewBox="0 0 88 38" fill="none" xmlns="http://www.w3.org/2000/svg">
<g id="Logo 1">
<g id="Group">
<path id="Vector" d="M0 33.0898C0 31.4251 1.34352 30.0645 3.00905 30.0645C4.23436 30.0645 5.23222 30.808 5.70505 31.8645L4.62323 32.1776C4.31915 31.5775 3.76152 31.1463 3.00905 31.1463C1.92723 31.1463 1.13318 32.008 1.13318 33.0898C1.13318 34.1716 1.92804 35.0252 3.00905 35.0252C3.76152 35.0252 4.30203 34.6363 4.59796 34.0282L5.6969 34.3241C5.23221 35.3725 4.24333 36.107 3.00905 36.107C1.34352 36.107 0 34.7545 0 33.0898Z" fill="#FFDC00"/>
<path id="Vector_2" d="M6.17773 33.7999C6.17773 32.5322 7.20901 31.4927 8.47671 31.4927C9.75257 31.4927 10.7838 32.5411 10.7838 33.7999C10.7838 35.0757 9.75257 36.116 8.47671 36.116C7.20901 36.1152 6.17773 35.0594 6.17773 33.7999ZM9.76153 33.7999C9.76153 33.0816 9.20391 32.4979 8.47671 32.4979C7.75849 32.4979 7.20086 33.0898 7.20086 33.7999C7.20086 34.5099 7.75849 35.11 8.47671 35.11C9.20391 35.11 9.76153 34.5099 9.76153 33.7999Z" fill="#FFDC00"/>
<path id="Vector_3" d="M11.4609 36.0475V31.5678H12.5599V32.0667C12.8305 31.7455 13.2194 31.4919 13.7428 31.4919C14.2751 31.4919 14.8075 31.7536 15.1206 32.2526C15.4752 31.7708 16.0499 31.4919 16.5994 31.4919C17.4448 31.4919 18.2894 32.1172 18.2894 33.2838V36.0475H17.1904V33.5374C17.1904 32.9031 16.9116 32.489 16.3793 32.489C15.754 32.489 15.4662 32.9537 15.4246 33.5031V36.0467H14.3257V33.5366C14.3257 32.9023 14.0469 32.4882 13.5145 32.4882C12.8387 32.4882 12.5599 33.0458 12.5599 33.6711V36.0459H11.4609V36.0475Z" fill="#FFDC00"/>
<path id="Vector_4" d="M19.1426 36.0475V31.5678H20.2415V32.0667C20.5122 31.7455 20.9011 31.4919 21.4244 31.4919C21.9568 31.4919 22.4891 31.7536 22.8022 32.2526C23.1568 31.7708 23.7316 31.4919 24.281 31.4919C25.1264 31.4919 25.971 32.1172 25.971 33.2838V36.0475H24.8729V33.5374C24.8729 32.9031 24.5941 32.489 24.0617 32.489C23.4365 32.489 23.1487 32.9537 23.1071 33.5031V36.0467H22.0081V33.5366C22.0081 32.9023 21.7293 32.4882 21.197 32.4882C20.5212 32.4882 20.2423 33.0458 20.2423 33.6711V36.0459H19.1426V36.0475Z" fill="#FFDC00"/>
<path id="Vector_5" d="M26.5977 33.7999C26.5977 32.5322 27.6289 31.4927 28.8966 31.4927C30.1725 31.4927 31.2038 32.5411 31.2038 33.7999C31.2038 35.0757 30.1725 36.116 28.8966 36.116C27.6289 36.1152 26.5977 35.0594 26.5977 33.7999ZM30.1815 33.7999C30.1815 33.0816 29.6238 32.4979 28.8966 32.4979C28.1784 32.4979 27.6208 33.0898 27.6208 33.7999C27.6208 34.5099 28.1784 35.11 28.8966 35.11C29.623 35.11 30.1815 34.5099 30.1815 33.7999Z" fill="#FFDC00"/>
<path id="Vector_6" d="M31.71 33.808C31.71 32.5061 32.716 31.4919 33.9331 31.4919C34.4997 31.4919 34.9554 31.7202 35.2766 32.0585V30.1313H36.3756V36.0475H35.2766V35.5657C34.9554 35.895 34.5079 36.1152 33.9331 36.1152C32.716 36.1152 31.71 35.0594 31.71 33.808ZM35.3443 33.808C35.3443 33.0979 34.7614 32.4898 34.0424 32.4898C33.2989 32.4898 32.7404 33.0979 32.7404 33.808C32.7404 34.5181 33.298 35.1181 34.0424 35.1181C34.7524 35.1181 35.3443 34.5181 35.3443 33.808Z" fill="#FFDC00"/>
<path id="Vector_7" d="M37.1953 30.4614C37.1953 30.0815 37.5084 29.7938 37.8883 29.7938C38.2682 29.7938 38.5812 30.0815 38.5812 30.4614C38.5812 30.8422 38.2682 31.121 37.8883 31.121C37.5084 31.1202 37.1953 30.8413 37.1953 30.4614ZM37.3306 36.0475V31.5677H38.4296V36.0475H37.3306Z" fill="#FFDC00"/>
<path id="Vector_8" d="M42.3723 36.014C40.9946 36.4029 39.9046 35.904 39.9046 34.5776V32.515H39.1016V31.5685H39.9046V30.5372L40.9946 30.2242V31.5677H42.3299V32.5142H40.9946V34.5678C40.9946 34.9819 41.4258 35.286 42.3723 34.9485V36.014Z" fill="#FFDC00"/>
<path id="Vector_9" d="M42.9668 30.4614C42.9668 30.0815 43.2798 29.7938 43.6598 29.7938C44.0405 29.7938 44.3527 30.0815 44.3527 30.4614C44.3527 30.8422 44.0397 31.121 43.6598 31.121C43.2798 31.1202 42.9668 30.8413 42.9668 30.4614ZM43.1021 36.0475V31.5677H44.2011V36.0475H43.1021Z" fill="#FFDC00"/>
<path id="Vector_10" d="M44.9873 33.808C44.9873 32.5061 46.0357 31.4919 47.2944 31.4919C48.4097 31.4919 49.348 32.3031 49.551 33.3686C49.6105 33.6393 49.6268 33.9263 49.5592 34.214H46.0773C46.2045 34.814 46.6944 35.1434 47.2944 35.1434C47.7167 35.1434 48.1561 34.9747 48.4439 34.6787L49.4075 34.9404C49.0439 35.6758 48.1227 36.1152 47.2944 36.1152C45.9933 36.1152 44.9873 35.0594 44.9873 33.808ZM48.4863 33.3768C48.3681 32.8868 47.9287 32.4637 47.2863 32.4637C46.6439 32.4637 46.1963 32.886 46.0773 33.3768H48.4863Z" fill="#FFDC00"/>
<path id="Vector_11" d="M50.3041 35.5746V34.4676C50.6335 34.7292 51.4365 35.1605 52.1294 35.1605C52.4841 35.1605 52.8395 35.0333 52.8395 34.7545C52.8395 34.4757 52.4759 34.3322 51.7495 34.1798C50.7011 33.9597 50.1777 33.5969 50.1777 32.8615C50.1777 31.9908 50.9636 31.4927 52.0283 31.4927C52.6789 31.4927 53.3042 31.6705 53.7526 31.9322V32.9716C52.9161 32.5322 52.3667 32.4311 52.0283 32.4311C51.5718 32.4311 51.3101 32.617 51.3101 32.8534C51.3101 33.1999 51.8677 33.2341 52.5273 33.3939C53.5496 33.6556 53.9637 34.1211 53.9637 34.7716C53.9637 35.7858 52.9748 36.1152 52.1294 36.1152C51.5465 36.1152 50.9294 35.9545 50.3041 35.5746Z" fill="#FFDC00"/>
<path id="Vector_12" d="M58.6203 36.0475V31.1878H56.7607V30.1313H61.5446V31.1878H59.7527V36.0475H58.6203Z" fill="#FFDC00"/>
<path id="Vector_13" d="M61.9238 36.0475V31.5677H63.0228V32.2354C63.2845 31.7707 63.8258 31.4153 64.6965 31.5506V32.7254C63.86 32.4466 63.0228 32.886 63.0228 33.7648V36.0467H61.9238V36.0475Z" fill="#FFDC00"/>
<path id="Vector_14" d="M65.0264 33.808C65.0264 32.5061 66.0324 31.4919 67.2495 31.4919C67.8161 31.4919 68.2718 31.7202 68.593 32.0585V31.5686H69.692V36.0483H68.593V35.5665C68.2718 35.8959 67.8153 36.116 67.2495 36.116C66.0324 36.1152 65.0264 35.0594 65.0264 33.808ZM68.6607 33.808C68.6607 33.098 68.0778 32.4898 67.3588 32.4898C66.6153 32.4898 66.0568 33.098 66.0568 33.808C66.0568 34.5181 66.6145 35.1181 67.3588 35.1181C68.0688 35.1181 68.6607 34.5181 68.6607 33.808Z" fill="#FFDC00"/>
<path id="Vector_15" d="M70.2949 33.808C70.2949 32.5061 71.3009 31.4919 72.5181 31.4919C73.0847 31.4919 73.5404 31.7202 73.8616 32.0585V30.1313H74.9605V36.0475H73.8616V35.5657C73.5404 35.895 73.0928 36.1152 72.5181 36.1152C71.3009 36.1152 70.2949 35.0594 70.2949 33.808ZM73.9293 33.808C73.9293 33.0979 73.3464 32.4898 72.6273 32.4898C71.8838 32.4898 71.3254 33.0979 71.3254 33.808C71.3254 34.5181 71.883 35.1181 72.6273 35.1181C73.3374 35.1181 73.9293 34.5181 73.9293 33.808Z" fill="#FFDC00"/>
<path id="Vector_16" d="M75.7256 30.4614C75.7256 30.0815 76.0386 29.7938 76.4185 29.7938C76.7993 29.7938 77.1115 30.0815 77.1115 30.4614C77.1115 30.8422 76.7984 31.121 76.4185 31.121C76.0378 31.1202 75.7256 30.8413 75.7256 30.4614ZM75.8609 36.0475V31.5677H76.959V36.0475H75.8609Z" fill="#FFDC00"/>
<path id="Vector_17" d="M77.8721 36.0475V31.5678H78.971V32.0748C79.258 31.7455 79.6982 31.4919 80.2982 31.4919C81.27 31.4919 82.1659 32.1596 82.1659 33.2838V36.0475H81.067V33.5716C81.067 32.9211 80.6105 32.5151 80.0781 32.5151C79.4104 32.5151 78.971 33.0556 78.971 33.7404V36.0475H77.8721Z" fill="#FFDC00"/>
<path id="Vector_18" d="M82.9082 36.2757H84.0072C84.2102 36.8162 84.7173 36.9687 85.1314 36.9687C85.7991 36.9687 86.2638 36.5798 86.2727 35.7768V35.4727C85.9686 35.7858 85.5121 35.9969 84.9292 35.9969C83.6362 35.9969 82.7061 34.9999 82.7061 33.7403C82.7061 32.4474 83.6778 31.4756 84.9292 31.4919C85.4958 31.5001 85.9515 31.7202 86.2727 32.0585V31.5685H87.3717V35.7605C87.3717 37.1211 86.3909 38 85.1485 38C84.1596 38 83.1879 37.4595 82.9082 36.2757ZM86.3396 33.7403C86.3396 33.0384 85.7567 32.4726 85.0376 32.4726C84.3104 32.4726 83.7357 33.0392 83.7357 33.7403C83.7357 34.4586 84.3276 35.0162 85.0376 35.0162C85.7485 35.017 86.3396 34.4504 86.3396 33.7403Z" fill="#FFDC00"/>
</g>
<g id="Group_2">
<path id="Vector_19" opacity="0.2" d="M28.349 0H27.7718L18.9248 24.6097H19.502L28.349 0Z" fill="#FFDC00"/>
<path id="Vector_20" opacity="0.4" d="M30.1439 0H29.5667L20.7197 24.6097H21.2969L30.1439 0Z" fill="#FFDC00"/>
<path id="Vector_21" opacity="0.5" d="M32.326 0H31.4798L22.6328 24.6097H23.479L32.326 0Z" fill="#FFDC00"/>
<path id="Vector_22" opacity="0.6" d="M34.9085 0H33.6497L24.8027 24.6097H26.0623L34.9085 0Z" fill="#FFDC00"/>
<path id="Vector_23" opacity="0.7" d="M37.4282 0H35.6029L26.7559 24.6097H28.582L37.4282 0Z" fill="#FFDC00"/>
<path id="Vector_24" opacity="0.8" d="M39.9057 0H38.0796L29.2334 24.6097H31.0587L39.9057 0Z" fill="#FFDC00"/>
<path id="Vector_25" d="M32.7051 24.6096L41.2936 0.000793457H59.8803L55.2049 6.04988L45.7571 6.04336L44.4454 9.75922L55.6557 9.78368L51.0072 15.8898H42.329L39.311 24.6096H32.7051Z" fill="#FFDC00"/>
<path id="Vector_26" d="M62.0284 0.000793457L57.3676 6.05233H60.1533L53.6143 24.6096H59.8818L68.6163 0.000793457H62.0284Z" fill="#FFDC00"/>
</g>
</g>
</svg>
